{
    "accessors": {
        "accessor_43": {
            "bufferView": "bufferView_58",
            "byteOffset": 0,
            "byteStride": 0,
            "componentType": 5123,
            "count": 54,
            "type": "SCALAR"
        },
        "accessor_46": {
            "bufferView": "bufferView_58",
            "byteOffset": 108,
            "byteStride": 0,
            "componentType": 5123,
            "count": 153,
            "type": "SCALAR"
        },
        "accessor_49": {
            "bufferView": "bufferView_58",
            "byteOffset": 414,
            "byteStride": 0,
            "componentType": 5123,
            "count": 18,
            "type": "SCALAR"
        },
        "accessor_52": {
            "bufferView": "bufferView_58",
            "byteOffset": 450,
            "byteStride": 0,
            "componentType": 5123,
            "count": 126,
            "type": "SCALAR"
        },
        "accessor_54": {
            "bufferView": "bufferView_59",
            "byteOffset": 0,
            "byteStride": 12,
            "componentType": 5126,
            "count": 186,
            "max": [
                22.768,
                8.714,
                23.22
            ],
            "min": [
                -0.16196,
                -10.206,
                0
            ],
            "type": "VEC3"
        },
        "accessor_56": {
            "bufferView": "bufferView_59",
            "byteOffset": 2232,
            "byteStride": 8,
            "componentType": 5126,
            "count": 186,
            "max": [
                0.90285,
                1
            ],
            "min": [
                0,
                0
            ],
            "type": "VEC2"
        }
    },
    "animations": {},
    "asset": {
        "generator": "collada2gltf@f276333957743f3a823db04d202ce9abbbfe6a7f",
        "premultipliedAlpha": true,
        "profile": "WebGL 1.0.2",
        "version": 0.8
    },
    "bufferViews": {
        "bufferView_58": {
            "buffer": "UUID_8891ac28-96d0-4e84-99ac-520a35827e0b",
            "byteLength": 704,
            "byteOffset": 0,
            "target": 34963
        },
        "bufferView_59": {
            "buffer": "UUID_8891ac28-96d0-4e84-99ac-520a35827e0b",
            "byteLength": 3720,
            "byteOffset": 704,
            "target": 34962
        }
    },
    "buffers": {
        "UUID_8891ac28-96d0-4e84-99ac-520a35827e0b": {
            "byteLength": 4424,
            "type": "arraybuffer",
            "uri": "data:application/octet-stream;base64,"
        }
    },
    "images": {
        "textureAtlas_TPIM_1555389392_0_img": {
            "uri": "textureAtlas_TPIM_1555389392_0.jpeg"
        },
        "textureAtlas_TPIM_1555389392_1_img": {
            "uri": "textureAtlas_TPIM_1555389392_1.jpeg"
        },
        "textureAtlas_TPIM_1555389392_2_img": {
            "uri": "textureAtlas_TPIM_1555389392_2.jpeg"
        }
    },
    "materials": {
        "default_ai_0.2_sh_0.2_tr_0.0_dc_r_0.8_g_0.8_b_0.8_sc_r_1.0_g_1.0_b_1.0_ec_r_0.0_g_0.0_b_0_eff": {
            "instanceTechnique": {
                "technique": "technique0",
                "values": {
                    "diffuse": [
                        0.8,
                        0.8,
                        0.8,
                        1
                    ],
                    "emission": [
                        0,
                        0,
                        0,
                        1
                    ],
                    "transparency": 0
                }
            },
            "name": "default_ai_0.2_sh_0.2_tr_0.0_dc_r_0.8_g_0.8_b_0.8_sc_r_1.0_g_1.0_b_1.0_ec_r_0.0_g_0.0_b_0_mat"
        },
        "textureAtlas_TPIM_1555389392_0_eff": {
            "instanceTechnique": {
                "technique": "technique1",
                "values": {
                    "diffuse": "texture_textureAtlas_TPIM_1555389392_0_img"
                }
            },
            "name": "textureAtlas_TPIM_1555389392_0_mat"
        },
        "textureAtlas_TPIM_1555389392_1_eff": {
            "instanceTechnique": {
                "technique": "technique1",
                "values": {
                    "diffuse": "texture_textureAtlas_TPIM_1555389392_1_img"
                }
            },
            "name": "textureAtlas_TPIM_1555389392_1_mat"
        },
        "textureAtlas_TPIM_1555389392_2_eff": {
            "instanceTechnique": {
                "technique": "technique1",
                "values": {
                    "diffuse": "texture_textureAtlas_TPIM_1555389392_2_img"
                }
            },
            "name": "textureAtlas_TPIM_1555389392_2_mat"
        }
    },
    "meshes": {
        "geometry0": {
            "name": "geometry0",
            "primitives": [
                {
                    "attributes": {
                        "POSITION": "accessor_54"
                    },
                    "indices": "accessor_43",
                    "material": "default_ai_0.2_sh_0.2_tr_0.0_dc_r_0.8_g_0.8_b_0.8_sc_r_1.0_g_1.0_b_1.0_ec_r_0.0_g_0.0_b_0_eff",
                    "primitive": 4
                },
                {
                    "attributes": {
                        "POSITION": "accessor_54",
                        "TEXCOORD_0": "accessor_56"
                    },
                    "indices": "accessor_46",
                    "material": "textureAtlas_TPIM_1555389392_0_eff",
                    "primitive": 4
                },
                {
                    "attributes": {
                        "POSITION": "accessor_54",
                        "TEXCOORD_0": "accessor_56"
                    },
                    "indices": "accessor_49",
                    "material": "textureAtlas_TPIM_1555389392_2_eff",
                    "primitive": 4
                },
                {
                    "attributes": {
                        "POSITION": "accessor_54",
                        "TEXCOORD_0": "accessor_56"
                    },
                    "indices": "accessor_52",
                    "material": "textureAtlas_TPIM_1555389392_1_eff",
                    "primitive": 4
                }
            ]
        }
    },
    "nodes": {
        "node_0": {
            "children": [],
            "matrix": [
                1,
                0,
                0,
                0,
                0,
                1,
                0,
                0,
                0,
                0,
                1,
                0,
                0,
                0,
                0,
                1
            ],
            "meshes": [
                "geometry0"
            ],
            "name": ""
        },
        "node_1": {
            "children": [
                "node_0"
            ],
            "matrix": [
                1,
                0,
                0,
                0,
                0,
                0,
                -1,
                0,
                0,
                1,
                0,
                0,
                0,
                0,
                0,
                1
            ],
            "name": "Y_UP_Transform"
        }
    },
    "programs": {
        "program_0": {
            "attributes": [
                "a_position"
            ],
            "fragmentShader": "UUID_8891ac28-96d0-4e84-99ac-520a35827e0b0FS",
            "vertexShader": "UUID_8891ac28-96d0-4e84-99ac-520a35827e0b0VS"
        },
        "program_1": {
            "attributes": [
                "a_position",
                "a_texcoord0"
            ],
            "fragmentShader": "UUID_8891ac28-96d0-4e84-99ac-520a35827e0b1FS",
            "vertexShader": "UUID_8891ac28-96d0-4e84-99ac-520a35827e0b1VS"
        }
    },
    "samplers": {
        "sampler_0": {
            "magFilter": 9729,
            "minFilter": 9729,
            "wrapS": 10497,
            "wrapT": 10497
        }
    },
    "scene": "defaultScene",
    "scenes": {
        "defaultScene": {
            "nodes": [
                "node_1"
            ]
        }
    },
    "shaders": {
        "UUID_8891ac28-96d0-4e84-99ac-520a35827e0b0FS": {
            "type": 35632,
            "uri": "data:text/plain;base64,"
        },
        "UUID_8891ac28-96d0-4e84-99ac-520a35827e0b0VS": {
            "type": 35633,
            "uri": "data:text/plain;base64,"
        },
        "UUID_8891ac28-96d0-4e84-99ac-520a35827e0b1FS": {
            "type": 35632,
            "uri": "data:text/plain;base64,"
        },
        "UUID_8891ac28-96d0-4e84-99ac-520a35827e0b1VS": {
            "type": 35633,
            "uri": "data:text/plain;base64,"
        }
    },
    "skins": {},
    "techniques": {
        "technique0": {
            "parameters": {
                "diffuse": {
                    "type": 35666
                },
                "emission": {
                    "type": 35666
                },
                "modelViewMatrix": {
                    "semantic": "MODELVIEW",
                    "type": 35676
                },
                "position": {
                    "semantic": "POSITION",
                    "type": 35665
                },
                "projectionMatrix": {
                    "semantic": "PROJECTION",
                    "type": 35676
                },
                "transparency": {
                    "type": 5126
                }
            },
            "pass": "defaultPass",
            "passes": {
                "defaultPass": {
                    "details": {
                        "commonProfile": {
                            "extras": {
                                "doubleSided": false
                            },
                            "lightingModel": "Lambert",
                            "parameters": [
                                "diffuse",
                                "emission",
                                "modelViewMatrix",
                                "projectionMatrix",
                                "transparency"
                            ]
                        },
                        "type": "COLLADA-1.4.1/commonProfile"
                    },
                    "instanceProgram": {
                        "attributes": {
                            "a_position": "position"
                        },
                        "program": "program_0",
                        "uniforms": {
                            "u_diffuse": "diffuse",
                            "u_emission": "emission",
                            "u_modelViewMatrix": "modelViewMatrix",
                            "u_projectionMatrix": "projectionMatrix",
                            "u_transparency": "transparency"
                        }
                    },
                    "states": {
                        "enable": [
                            2884,
                            2929,
                            3042
                        ],
                        "functions": {
                            "blendEquationSeparate": [
                                32774,
                                32774
                            ],
                            "blendFuncSeparate": [
                                1,
                                771,
                                1,
                                771
                            ]
                        }
                    }
                }
            }
        },
        "technique1": {
            "parameters": {
                "diffuse": {
                    "type": 35678
                },
                "modelViewMatrix": {
                    "semantic": "MODELVIEW",
                    "type": 35676
                },
                "position": {
                    "semantic": "POSITION",
                    "type": 35665
                },
                "projectionMatrix": {
                    "semantic": "PROJECTION",
                    "type": 35676
                },
                "texcoord0": {
                    "semantic": "TEXCOORD_0",
                    "type": 35664
                }
            },
            "pass": "defaultPass",
            "passes": {
                "defaultPass": {
                    "details": {
                        "commonProfile": {
                            "extras": {
                                "doubleSided": false
                            },
                            "lightingModel": "Lambert",
                            "parameters": [
                                "diffuse",
                                "modelViewMatrix",
                                "projectionMatrix"
                            ]
                        },
                        "type": "COLLADA-1.4.1/commonProfile"
                    },
                    "instanceProgram": {
                        "attributes": {
                            "a_position": "position",
                            "a_texcoord0": "texcoord0"
                        },
                        "program": "program_1",
                        "uniforms": {
                            "u_diffuse": "diffuse",
                            "u_modelViewMatrix": "modelViewMatrix",
                            "u_projectionMatrix": "projectionMatrix"
                        }
                    },
                    "states": {
                        "enable": [
                            2884,
                            2929
                        ]
                    }
                }
            }
        }
    },
    "textures": {
        "texture_textureAtlas_TPIM_1555389392_0_img": {
            "format": 6408,
            "internalFormat": 6408,
            "sampler": "sampler_0",
            "source": "textureAtlas_TPIM_1555389392_0_img",
            "target": 3553,
            "type": 5121
        },
        "texture_textureAtlas_TPIM_1555389392_1_img": {
            "format": 6408,
            "internalFormat": 6408,
            "sampler": "sampler_0",
            "source": "textureAtlas_TPIM_1555389392_1_img",
            "target": 3553,
            "type": 5121
        },
        "texture_textureAtlas_TPIM_1555389392_2_img": {
            "format": 6408,
            "internalFormat": 6408,
            "sampler": "sampler_0",
            "source": "textureAtlas_TPIM_1555389392_2_img",
            "target": 3553,
            "type": 5121
        }
    }
}